<svg width="469" height="338" viewBox="0 0 469 338" fill="none" xmlns="http://www.w3.org/2000/svg">
<mask id="mask0_33_38" style="mask-type:luminance" maskUnits="userSpaceOnUse" x="0" y="13" width="306" height="306">
<path d="M0 13H306V319H0V13Z" fill="white"/>
</mask>
<g mask="url(#mask0_33_38)">
<mask id="mask1_33_38" style="mask-type:luminance" maskUnits="userSpaceOnUse" x="0" y="13" width="306" height="306">
<path d="M0 13H306V319H0V13Z" fill="white"/>
</mask>
<g mask="url(#mask1_33_38)">
<mask id="mask2_33_38" style="mask-type:alpha" maskUnits="userSpaceOnUse" x="25" y="41" width="160" height="254">
<rect x="25" y="41" width="160" height="254" fill="#D9D9D9"/>
</mask>
<g mask="url(#mask2_33_38)">
<path d="M153.181 93.4894V128.498M153.181 93.4894C164.623 93.4894 173.899 84.2134 173.899 72.7718C173.899 61.3303 164.623 52.0542 153.181 52.0542C141.74 52.0542 132.464 61.3303 132.464 72.7718C132.464 84.2134 141.74 93.4894 153.181 93.4894Z" stroke="#2C3E50" stroke-width="12" stroke-linecap="round" stroke-linejoin="round"/>
<path d="M231.385 151.356L197.906 161.592M231.385 151.356C234.73 162.298 246.313 168.457 257.254 165.111C268.196 161.766 274.355 150.183 271.009 139.242C267.664 128.3 256.081 122.142 245.14 125.487C234.198 128.832 228.04 140.415 231.385 151.356Z" stroke="#2C3E50" stroke-width="12" stroke-linecap="round" stroke-linejoin="round"/>
<path d="M200.086 242.252L180.006 213.575M200.086 242.252C190.714 248.815 188.436 261.734 194.998 271.106C201.561 280.478 214.48 282.756 223.852 276.194C233.225 269.631 235.503 256.712 228.94 247.34C222.377 237.967 209.458 235.689 200.086 242.252Z" stroke="#2C3E50" stroke-width="12" stroke-linecap="round" stroke-linejoin="round"/>
<path d="M106.277 242.253L126.357 213.576M106.277 242.253C96.9042 235.69 83.9852 237.968 77.4226 247.341C70.86 256.713 73.138 269.632 82.5103 276.195C91.8827 282.757 104.802 280.479 111.364 271.107C117.927 261.735 115.649 248.815 106.277 242.253Z" stroke="#2C3E50" stroke-width="12" stroke-linecap="round" stroke-linejoin="round"/>
<path d="M74.9791 151.357L108.458 161.592M74.9791 151.357C78.3243 140.415 72.1656 128.832 61.224 125.487C50.2824 122.142 38.6996 128.301 35.3544 139.242C32.0092 150.184 38.1679 161.767 49.1095 165.112C60.0511 168.457 71.6339 162.298 74.9791 151.357Z" stroke="#2C3E50" stroke-width="12" stroke-linecap="round" stroke-linejoin="round"/>
<path d="M199.949 175.265C199.949 201.094 179.01 222.033 153.181 222.033C127.353 222.033 106.414 201.094 106.414 175.265C106.414 149.437 127.353 128.498 153.181 128.498C179.01 128.498 199.949 149.437 199.949 175.265Z" stroke="#08A88A" stroke-width="12" stroke-linecap="round" stroke-linejoin="round"/>
</g>
</g>
</g>
<path d="M206.776 67.28L234.424 51.28C237.325 49.5733 239.885 49.36 242.104 50.64C244.408 51.92 245.56 54.2667 245.56 57.68V70.48L234.424 76.88V64.08L206.776 80.08V154.32L234.424 138.32V125.52L245.56 119.12V131.92C245.56 134.139 245.005 136.528 243.896 139.088C242.872 141.648 241.507 144.037 239.8 146.256C238.179 148.389 236.387 150.011 234.424 151.12L206.776 167.12C203.789 168.827 201.187 169.04 198.968 167.76C196.749 166.48 195.64 164.133 195.64 160.72V86.48C195.64 84.176 196.152 81.7867 197.176 79.312C198.2 76.752 199.565 74.4053 201.272 72.272C202.979 70.0533 204.813 68.3893 206.776 67.28ZM245.56 119.12L234.424 125.52L223.288 119.12L234.424 112.72L245.56 119.12ZM234.424 125.52V138.32L223.288 131.92V119.12L234.424 125.52ZM234.424 138.32L206.776 154.32L195.64 147.92L223.288 131.92L234.424 138.32ZM234.424 64.08V76.88L223.288 70.48V57.68L234.424 64.08ZM242.232 50.64C239.928 49.36 237.325 49.5733 234.424 51.28L206.776 67.28C204.813 68.3893 202.979 70.0533 201.272 72.272C199.565 74.4053 198.2 76.752 197.176 79.312C196.152 81.7867 195.64 84.176 195.64 86.48V160.72C195.64 164.133 196.749 166.48 198.968 167.76L187.832 161.36C185.613 160.08 184.504 157.733 184.504 154.32V80.08C184.504 77.776 185.016 75.3867 186.04 72.912C187.064 70.352 188.429 68.0053 190.136 65.872C191.843 63.6533 193.677 61.9893 195.64 60.88L223.288 44.88C226.275 43.1733 228.877 42.96 231.096 44.24L242.232 50.64ZM278.901 67.28L306.549 51.28C309.45 49.5733 312.01 49.36 314.229 50.64C316.533 51.92 317.685 54.2667 317.685 57.68V131.92C317.685 134.139 317.13 136.528 316.021 139.088C314.997 141.648 313.632 144.037 311.925 146.256C310.304 148.389 308.512 150.011 306.549 151.12L278.901 167.12C275.914 168.827 273.312 169.04 271.093 167.76C268.874 166.48 267.765 164.133 267.765 160.72V86.48C267.765 84.176 268.277 81.7867 269.301 79.312C270.325 76.752 271.69 74.4053 273.397 72.272C275.104 70.0533 276.938 68.3893 278.901 67.28ZM278.901 154.32L306.549 138.32V64.08L278.901 80.08V154.32ZM306.549 64.08V138.32L295.413 131.92V57.68L306.549 64.08ZM306.549 138.32L278.901 154.32L267.765 147.92L295.413 131.92L306.549 138.32ZM314.357 50.64C312.053 49.36 309.45 49.5733 306.549 51.28L278.901 67.28C276.938 68.3893 275.104 70.0533 273.397 72.272C271.69 74.4053 270.325 76.752 269.301 79.312C268.277 81.7867 267.765 84.176 267.765 86.48V160.72C267.765 164.133 268.874 166.48 271.093 167.76L259.957 161.36C257.738 160.08 256.629 157.733 256.629 154.32V80.08C256.629 77.776 257.141 75.3867 258.165 72.912C259.189 70.352 260.554 68.0053 262.261 65.872C263.968 63.6533 265.802 61.9893 267.765 60.88L295.413 44.88C298.4 43.1733 301.002 42.96 303.221 44.24L314.357 50.64ZM379.826 50.64C382.727 48.9333 385.287 48.72 387.506 50C389.725 51.28 390.834 53.6267 390.834 57.04V126.16C390.834 128.464 390.322 130.896 389.298 133.456C388.274 135.931 386.909 138.277 385.202 140.496C383.581 142.629 381.789 144.251 379.826 145.36L362.034 155.6C359.133 157.307 356.573 157.52 354.354 156.24C352.135 154.96 351.026 152.613 351.026 149.2L379.826 132.56V63.44L351.026 80.08V162L339.89 168.4V73.68L379.826 50.64ZM379.826 63.44V132.56L368.69 126.16V57.04L379.826 63.44ZM379.826 132.56L351.026 149.2L339.89 142.8L368.69 126.16L379.826 132.56ZM351.026 149.2C351.026 152.613 352.135 154.96 354.354 156.24L343.218 149.84C340.999 148.56 339.89 146.213 339.89 142.8L351.026 149.2ZM387.506 50C385.287 48.72 382.727 48.9333 379.826 50.64L339.89 73.68L328.754 67.28L368.69 44.24C371.591 42.5333 374.194 42.32 376.498 43.6L387.506 50ZM339.89 73.68V168.4L328.754 162V67.28L339.89 73.68ZM413.14 91.6C413.14 89.296 413.652 86.9067 414.676 84.432C415.7 81.872 417.065 79.5253 418.772 77.392C420.479 75.1733 422.313 73.5093 424.276 72.4L463.06 50V62.8L424.276 85.2V113.36L463.06 90.96V103.76L424.276 126.16V154.32L463.06 131.92V144.72L424.276 167.12C421.289 168.827 418.687 169.04 416.468 167.76C414.249 166.48 413.14 164.133 413.14 160.72V91.6ZM463.06 131.92L424.276 154.32L413.14 147.92L451.924 125.52L463.06 131.92ZM463.06 90.96L424.276 113.36L413.14 106.96L451.924 84.56L463.06 90.96ZM463.06 50L424.276 72.4C422.313 73.5093 420.479 75.1733 418.772 77.392C417.065 79.5253 415.7 81.872 414.676 84.432C413.652 86.9067 413.14 89.296 413.14 91.6V160.72C413.14 164.133 414.249 166.48 416.468 167.76L405.332 161.36C403.113 160.08 402.004 157.733 402.004 154.32V85.2C402.004 82.896 402.516 80.5067 403.54 78.032C404.564 75.472 405.929 73.1253 407.636 70.992C409.343 68.7733 411.177 67.1093 413.14 66L451.924 43.6L463.06 50Z" fill="#08A88A"/>
<path d="M206.776 200.4V238.8L234.424 222.8V184.4L245.56 178V267.6L234.424 274V235.6L206.776 251.6V290L195.64 296.4V206.8L206.776 200.4ZM234.424 235.6V274L223.288 267.6V229.2L234.424 235.6ZM245.56 178L234.424 184.4L223.288 178L234.424 171.6L245.56 178ZM234.424 184.4V222.8L223.288 216.4V178L234.424 184.4ZM234.424 222.8L206.776 238.8L195.64 232.4L223.288 216.4L234.424 222.8ZM206.776 200.4L195.64 206.8L184.504 200.4L195.64 194L206.776 200.4ZM195.64 206.8V296.4L184.504 290V200.4L195.64 206.8ZM306.549 279.12L278.901 295.12C275.914 296.827 273.312 297.04 271.093 295.76C268.874 294.48 267.765 292.133 267.765 288.72V206.8L278.901 200.4V282.32L306.549 266.32V184.4L317.685 178V259.92C317.685 262.139 317.13 264.528 316.021 267.088C314.997 269.648 313.632 272.037 311.925 274.256C310.304 276.389 308.512 278.011 306.549 279.12ZM317.685 178L306.549 184.4L295.413 178L306.549 171.6L317.685 178ZM306.549 184.4V266.32L295.413 259.92V178L306.549 184.4ZM306.549 266.32L278.901 282.32L267.765 275.92L295.413 259.92L306.549 266.32ZM278.901 200.4L267.765 206.8L256.629 200.4L267.765 194L278.901 200.4ZM267.765 206.8V288.72C267.765 292.133 268.874 294.48 271.093 295.76L259.957 289.36C257.738 288.08 256.629 285.733 256.629 282.32V200.4L267.765 206.8ZM379.826 178.64C382.727 176.933 385.287 176.72 387.506 178C389.725 179.28 390.834 181.627 390.834 185.04V202.96C390.834 205.179 390.322 207.568 389.298 210.128C388.274 212.688 386.909 215.077 385.202 217.296C383.581 219.429 381.789 221.051 379.826 222.16C382.727 220.453 385.287 220.24 387.506 221.52C389.725 222.8 390.834 225.147 390.834 228.56V254.16C390.834 256.464 390.322 258.896 389.298 261.456C388.274 263.931 386.909 266.277 385.202 268.496C383.581 270.629 381.789 272.251 379.826 273.36L362.034 283.6C359.133 285.307 356.573 285.52 354.354 284.24C352.135 282.96 351.026 280.613 351.026 277.2V290L339.89 296.4V201.68L379.826 178.64ZM379.826 222.16V191.44L351.026 208.08V238.8L379.826 222.16ZM379.826 234.96L351.026 251.6V277.2L379.826 260.56V234.96ZM351.026 277.2C351.026 280.613 352.135 282.96 354.354 284.24L343.218 277.84C340.999 276.56 339.89 274.213 339.89 270.8L351.026 277.2ZM387.506 221.52C385.287 220.24 382.727 220.453 379.826 222.16L368.69 215.76C371.591 214.053 374.194 213.84 376.498 215.12L387.506 221.52ZM379.826 234.96V260.56L368.69 254.16V228.56L379.826 234.96ZM379.826 260.56L351.026 277.2L339.89 270.8L368.69 254.16L379.826 260.56ZM379.826 191.44V222.16L368.69 215.76V185.04L379.826 191.44ZM379.826 222.16L351.026 238.8L339.89 232.4L368.69 215.76L379.826 222.16ZM387.506 178C385.287 176.72 382.727 176.933 379.826 178.64L339.89 201.68L328.754 195.28L368.69 172.24C371.591 170.533 374.194 170.32 376.498 171.6L387.506 178ZM339.89 201.68V296.4L328.754 290V195.28L339.89 201.68Z" fill="#2C3E50"/>
</svg>
